<?xml version="1.0" encoding="utf-8"?>
<!-- Generator: Adobe Illustrator 19.2.0, SVG Export Plug-In . SVG Version: 6.00 Build 0)  -->
<svg version="1.1" id="Capa_1" xmlns="http://www.w3.org/2000/svg" xmlns:xlink="http://www.w3.org/1999/xlink" x="0px" y="0px"
	 viewBox="0 0 387.5 387.5" style="enable-background:new 0 0 387.5 387.5;" xml:space="preserve">
<style type="text/css">
	.st0{opacity:0.73;}
</style>
<path class="st0" d="M359.1,387.5H28.4C12.8,387.5,0,374.7,0,359.1V28.4C0,12.8,12.8,0,28.4,0h330.6c15.6,0,28.4,12.8,28.4,28.4
	v330.6C387.5,374.7,374.7,387.5,359.1,387.5z M199.5,128.2l-7.8,10.2c-1.9,2.5-5.6,2.5-7.5,0l-46.5-60.6
	c-4.9-6.3-12.4-10.1-20.4-10.1H76.2c-13.8,0-25,11.2-25,25l-5.3,196.1c0,4-3.2,7.2-7.2,7.2h0c-5,0-9,4-9,9v11.8
	c0,1.6,1.3,2.9,2.9,2.9h34.1c13.8,0,25-11.2,25-25L96.8,121c0-4.2,3.4-7.6,7.6-7.6h1.6c0.9,0,1.7,0.4,2.3,1.1l50.1,65.3
	c4.9,6.3,12.4,10.1,20.4,10.1h18.7c7.8,0,15.1-3.6,19.8-9.8l18.4-24.1c1.1-1.5,0.8-3.6-0.6-4.7l-30.9-23.7
	C202.7,126.5,200.6,126.7,199.5,128.2z M357.9,316.7v-12.8c0-4.3-3.5-7.8-7.8-7.8h-12.3c-3.9,0-7.1-3.2-7.1-7.1l-5.9-191.3
	c0-16.5-13.4-30-30-30h-37.6c-7.1,0-13.8,3.3-18.1,8.9l-27.6,36c-2.4,3.1-1.8,7.6,1.3,10l25,19.1c3.1,2.4,7.6,1.8,10-1.3l19.7-25.7
	c0.6-0.8,1.6-1.3,2.7-1.3h1.8c3.9,0,7.1,3.2,7.1,7.1l5.9,169.3c0,16.5,13.4,30,30,30h39.9C356.5,319.8,357.9,318.4,357.9,316.7z
	 M294.1,318.5c-12-7.5-13.5-19-13.7-21.8c0-0.4-0.3-0.6-0.7-0.6h-28.3c-1.7,0-3,1.4-3,3V312c0,4.3,3.5,7.8,7.8,7.8h37.6
	C294.4,319.8,294.7,318.9,294.1,318.5z"/>
</svg>
