<?xml version="1.0" encoding="utf-8"?>
<!-- Generator: Adobe Illustrator 19.2.0, SVG Export Plug-In . SVG Version: 6.00 Build 0)  -->
<svg version="1.1" id="Capa_1" xmlns="http://www.w3.org/2000/svg" xmlns:xlink="http://www.w3.org/1999/xlink" x="0px" y="0px"
	 viewBox="0 0 387.5 387.5" style="enable-background:new 0 0 387.5 387.5;" xml:space="preserve">
<style type="text/css">
	.st0{fill:url(#SVGID_1_);}
	.st1{fill:#FFFFFF;}
	.st2{fill:#F6F6F6;}
</style>
<g>
	<linearGradient id="SVGID_1_" gradientUnits="userSpaceOnUse" x1="0" y1="193.7458" x2="387.4915" y2="193.7458">
		<stop  offset="0" style="stop-color:#DEDC00"/>
		<stop  offset="1" style="stop-color:#95C11F"/>
	</linearGradient>
	<path class="st0" d="M359.1,387.5H28.4C12.8,387.5,0,374.7,0,359.1V28.4C0,12.8,12.8,0,28.4,0h330.6c15.6,0,28.4,12.8,28.4,28.4
		v330.6C387.5,374.7,374.7,387.5,359.1,387.5z"/>
	<g>
		<g>
			<g>
				<g>
					<g>
						<path class="st1" d="M199.5,128.2l-7.8,10.2c-1.9,2.5-5.6,2.5-7.5,0l-46.5-60.6c-4.9-6.3-12.4-10.1-20.4-10.1H76.2
							c-13.8,0-25,11.2-25,25l-5.3,196.1c0,4-3.2,7.2-7.2,7.2h0c-5,0-9,4-9,9v11.8c0,1.6,1.3,2.9,2.9,2.9h34.1c13.8,0,25-11.2,25-25
							L96.8,121c0-4.2,3.4-7.6,7.6-7.6h1.6c0.9,0,1.7,0.4,2.3,1.1l50.1,65.3c4.9,6.3,12.4,10.1,20.4,10.1h18.7
							c7.8,0,15.1-3.6,19.8-9.8l18.4-24.1c1.1-1.5,0.8-3.6-0.6-4.7l-30.9-23.7C202.7,126.5,200.6,126.7,199.5,128.2z"/>
					</g>
				</g>
				<g>
					<g>
						<path class="st2" d="M354.9,319.8h-39.9c-16.5,0-30-13.4-30-30l-5.9-169.3c0-3.9-3.2-7.1-7.1-7.1h-1.8c-1.1,0-2.1,0.5-2.7,1.3
							l-19.7,25.7c-2.4,3.1-6.9,3.7-10,1.3l-25-19.1c-3.1-2.4-3.7-6.9-1.3-10l27.6-36c4.3-5.6,11-8.9,18.1-8.9h37.6
							c16.5,0,30,13.4,30,30l5.9,191.3c0,3.9,3.2,7.1,7.1,7.1h12.3c4.3,0,7.8,3.5,7.8,7.8v12.8C357.9,318.4,356.5,319.8,354.9,319.8
							z"/>
					</g>
				</g>
			</g>
			<path class="st2" d="M293.7,319.8h-37.6c-4.3,0-7.8-3.5-7.8-7.8v-12.8c0-1.7,1.4-3,3-3h28.3c0.4,0,0.7,0.3,0.7,0.6
				c0.2,2.8,1.7,14.2,13.7,21.8C294.7,318.9,294.4,319.8,293.7,319.8z"/>
		</g>
	</g>
</g>
</svg>
